<?xml version="1.0" encoding="UTF-8"?>
<!-- Generator: visioncortex VTracer 0.6.12 -->
<svg version="1.1" xmlns="http://www.w3.org/2000/svg" width="1010" height="972">
<path d="M0 0 C333.3 0 666.6 0 1010 0 C1010 320.76 1010 641.52 1010 972 C676.7 972 343.4 972 0 972 C0 651.24 0 330.48 0 0 Z " fill="#FAFBF6" transform="translate(0,0)"/>
<path d="M0 0 C3.927026735176355 2.0440359978047695 9.141682817094079 5.463317370265372 10.61328125 9.8125 C12.035636905802221 17.85814815403279 10.893595424350451 26.30217380127283 10.125 34.375 C10.046608886718786 35.23093749999998 9.968217773437459 36.08687500000002 9.887451171875 36.96875 C9.803420410156264 37.79117187500003 9.719389648437527 38.61359375000001 9.6328125 39.4609375 C9.559497070312545 40.19103027343749 9.486181640624977 40.92112304687498 9.41064453125 41.67333984375 C9 44.000000000000114 9 44.000000000000114 8.02734375 46.874755859375 C6.1829016958078 52.48566430417412 5.666510649432894 58.35084184066329 4.875 64.1875 C4.784121093749945 64.819462890625 4.784121093749945 64.819462890625 4.32421875 68.017578125 C3.3086706511584225 75.39748216658182 2.7395875445280353 82.55123928292647 3 90 C7.563732322927308 84.860214413243 11.981432316359019 79.62325919477485 16.31640625 74.2890625 C18.414592810478894 71.70982032094497 20.531109121542386 69.14625515131905 22.65234375 66.5859375 C23.28712646484371 65.81886474609377 23.921909179687532 65.05179199218753 24.575927734375 64.261474609375 C25.846146963239335 62.727250927157 27.117766862589292 61.19418568205691 28.390869140625 59.662353515625 C28.973444824218745 58.95780029296873 29.55602050781249 58.25324707031251 30.15625 57.52734375 C30.680253906250073 56.89562255859374 31.204257812499918 56.263901367187486 31.744140625 55.613037109375 C33 54 33 54 34 52 C34.66000000000008 52 35.319999999999936 52 36 52 C36.213984374999995 51.476640625000016 36.42796874999999 50.95328125000003 36.6484375 50.4140625 C38.54967328273949 47.0182136163786 41.058981367820024 44.286466968093464 43.625 41.375 C47.31601884806241 37.14778770995338 50.89982351363176 32.89610483975417 54.3125 28.4375 C58.528068638699665 23.161520281050116 61.95333427147307 19.43523796121815 68.9375 18.4375 C74.89343964074737 18.865402459626523 79.37941179032259 21.33889708508059 83.5 25.5625 C85.70838119276823 30.62337356676045 86.38906766765899 34.59353074450354 85 40 C82.36661923402755 44.822544776472796 78.811805042674 49.06946660353776 75 53 C74.33999999999992 53 73.68000000000006 53 73 53 C72.78730468749995 53.52207031249998 72.57460937500002 54.04414062500001 72.35546875 54.58203125 C70.43776868037162 58.0029429015849 67.89885956711964 60.75437257755726 65.3125 63.6875 C61.265713811464025 68.33481194646043 57.36581701853936 73.03229599496274 53.6328125 77.9375 C51.881243955115224 80.15000763564393 50.024918656010755 82.22631480908626 48.125 84.3125 C45.013565227162985 87.74829283795901 42.235711666327234 91.32087373471393 39.5 95.0625 C36.25988102495603 99.4661668543983 32.859317772114764 103.23536140587885 28.91015625 106.99609375 C26.065583372940637 109.98027756581081 23.878945804048158 113.34803752463137 21.578125 116.7578125 C19.64750697875786 119.50081929255691 17.428341871582006 121.69011382947076 15 124 C10.896243532368999 128.4174193823544 7.00331898699983 132.9336473623897 3.375 137.75 C0.5551695578631097 141.43449240837572 -2.234079652599121 144.28503416815283 -6 147 C-6.659999999999968 147 -7.319999999999936 147 -8 147 C-8.330000000000041 147.99 -8.659999999999968 148.98000000000002 -9 150 C-21.61249288019735 150.62198595025632 -21.61249288019735 150.62198595025632 -26.625 148.375 C-31.91506774618631 143.0849322538137 -34.10302927199177 138.69116736607475 -34.1328125 131.23046875 C-34 129 -34 129 -33.512939453125 126.303955078125 C-32.971487866924804 122.81634712189094 -32.80076193051843 119.43224335447957 -32.66015625 115.90625 C-32.14046862166242 105.95294787990332 -30.282506296068846 96.27771659313629 -28.4375 86.5 C-28.103958484801296 84.69416890603355 -27.771271306604945 82.88817979778156 -27.439453125 81.08203125 C-26.636103013146453 76.71947652826805 -25.82134959006794 72.35920016170076 -25 68 C-25.453750000000014 68.495 -25.907500000000027 68.99000000000001 -26.375 69.5 C-28 71 -28 71 -30 71 C-30.279082031250027 71.58918212890626 -30.558164062500055 72.17836425781252 -30.845703125 72.785400390625 C-31.919170404332476 74.84492274486041 -33.07052350725132 76.58514883956741 -34.46875 78.43359375 C-34.952309570312536 79.07570800781252 -35.43586914062496 79.71782226562499 -35.93408203125 80.37939453125 C-36.45083496093753 81.05856933593748 -36.967587890625055 81.73774414062501 -37.5 82.4375 C-38.03608886718746 83.14761230468753 -38.57217773437503 83.857724609375 -39.12451171875 84.58935546875 C-42.42841170358082 88.95770413095602 -45.76996512193989 93.29590102311306 -49.125 97.625 C-52.51919563846121 102.0168505865073 -55.795235112735156 106.46854478279892 -59 111 C-63.424887308688994 117.25548789578619 -68.03999141798431 123.34058393213456 -72.74560546875 129.38671875 C-74.8595997060196 132.10553422681545 -76.9616169461375 134.83354722512018 -79.0625 137.5625 C-79.47757812500004 138.10140869140628 -79.89265624999996 138.6403173828125 -80.3203125 139.195556640625 C-83.8228353604456 143.7514440368825 -87.26685933719011 148.349992316665 -90.70703125 152.953125 C-93.60122936048231 156.79890783846025 -96.53639598489735 160.61202797666112 -99.478271484375 164.42138671875 C-101.7014457155787 167.3024257283248 -103.90016678429959 170.19808487377577 -106.0625 173.125 C-107.03898041417494 174.41869862781937 -108.01843519306158 175.7101547888724 -109 177 C-109.698671875 177.9319921875 -110.39734375 178.86398437499997 -111.1171875 179.82421875 C-119.19255490322729 190.2243131329442 -119.19255490322729 190.2243131329442 -127.22265625 191.296875 C-132.66807032130208 191.6241452947694 -135.77999061264234 190.65734146904333 -140 187 C-144.51923744691095 182.23676616511034 -147.12858599499896 179.34935376954866 -147.113525390625 172.63232421875 C-147.11348762512205 172.07181869506837 -147.11348762512205 172.07181869506837 -147.11329650878906 169.23532104492188 C-147.10813522338867 168.0207119750977 -147.10297393798828 166.8061029052734 -147.09765625 165.5546875 C-147.09624130249023 164.3145388793945 -147.09482635498046 163.0743902587891 -147.09336853027344 161.79666137695313 C-147.08871096348207 158.498818666754 -147.0797243948369 155.20102453546093 -147.06866455078125 151.9031982421875 C-147.0584373141595 148.5383361338719 -147.0538680946637 145.17346691918664 -147.048828125 141.80859375 C-147.0377826889847 135.20571006782757 -147.02103246625552 128.60285900954142 -147 122 C-147.77939941406248 122.78084960937497 -148.55879882812502 123.56169921875 -149.36181640625 124.3662109375 C-150.9671237165449 125.96884422118143 -152.58126242638582 127.56277704886827 -154.2109375 129.140625 C-158.66098072952684 133.47821226343774 -162.5873444198216 137.91595099132962 -166.3203125 142.87890625 C-168.4444356219604 145.5612291691267 -170.80792744218672 147.89191084752906 -173.26171875 150.26953125 C-175.65921577054974 152.65625300304168 -177.84235703119236 155.20484545639385 -180.05078125 157.765625 C-182.33020693503443 160.37851376120182 -184.66212353223983 162.93930020777862 -187 165.5 C-191.65282849659036 170.60401186595675 -196.29116030563455 175.72186605116053 -200.69140625 181.046875 C-201.2263671875 181.69140625 -201.76132812499998 182.3359375 -202.3125 183 C-202.7830078125 183.5775 -203.25351562499998 184.15499999999997 -203.73828125 184.75 C-205 186 -205 186 -207 186 C-207 186.65999999999997 -207 187.31999999999994 -207 188 C-211.57153290678542 190.9304698120419 -214.69251729081208 191.34131209847783 -219.89453125 190.49609375 C-224.59751460292244 189.3879696575675 -227.0353473016783 187.27445748848902 -229.8125 183.4375 C-232.53614373098964 178.6950532479574 -233.31513068479398 174.34647899308413 -232 169 C-230.12266889349422 165.86085618256413 -227.61307309495447 163.53635074156205 -225 161 C-223.1565915410864 159.00814722887526 -221.32429255452962 157.0090902116591 -219.5 155 C-218.54071093281732 153.95671268004384 -217.5810820673164 152.91373768587346 -216.62109375 151.87109375 C-214.57039784161339 149.62480240474792 -212.55161714171493 147.362872635773 -210.5625 145.0625 C-206.93720464203307 140.87812294827427 -203.16485564830612 136.834026297258 -199.400390625 132.775390625 C-196.74420381099748 129.906442914757 -194.1161789220094 127.02374862527273 -191.5625 124.0625 C-188.3007556137128 120.28785231955464 -184.9025859698878 116.64712892561249 -181.5 113 C-177.5138786713328 108.72675231788912 -173.57397159511828 104.4310460575054 -169.75390625 100.0078125 C-167.45132586208717 97.37189642118665 -165.10330257650423 94.77803919987821 -162.75 92.1875 C-161.91984374999998 91.2735546875 -161.08968749999997 90.35960937499999 -160.234375 89.41796875 C-158.96310532679234 88.04224160364419 -157.6768900084349 86.6791815686588 -156.34765625 85.359375 C-155 84 -155 84 -152.6875 81.0625 C-149.47493607569868 77.2623875113722 -146.58465993123053 74.3884918301543 -141.453125 73.6171875 C-133.39734794167566 73.2833845832186 -128.31625279828523 75.3325792709445 -122.125 80.3125 C-117.3136836137574 86.39740013554211 -117.7257629112143 93.32914589391237 -117.8046875 100.74609375 C-117.80751739501954 101.75720718383786 -117.81034729003909 102.76832061767578 -117.81326293945313 103.81007385253906 C-117.82440110595343 107.01933951746418 -117.84949402982778 110.22831958314117 -117.875 113.4375 C-117.88503801987031 115.62174074307512 -117.89416243122452 117.80598588831737 -117.90234375 119.990234375 C-117.92431956691053 125.32691931525414 -117.9577334382177 130.66343924417373 -118 136 C-117.34000000000003 136 -116.68 136 -116 136 C-115.87109375 135.72091796874997 -115.87109375 135.72091796874997 -115.21875 134.30859375 C-111.24401750276968 126.77953315428493 -105.33608122175411 120.10807934718724 -100.134765625 113.400634765625 C-96.34379741315536 108.49161596649003 -92.66811711081357 103.50121510816393 -89 98.5 C-84.24413373301911 92.01802953724598 -79.42297960156566 85.60224340004777 -74.5 79.24609375 C-68.157092032381 71.03867775480273 -61.9466900186726 62.72228032828241 -55.875 54.3125 C-51.79814551833351 48.67734370199406 -47.55458780989704 43.17652870643633 -43.29541015625 37.67919921875 C-41.984993197798474 35.98054715688994 -40.68454864906994 34.27469001621506 -39.38671875 32.56640625 C-35.784474326957934 27.834512105004592 -32.20620016168664 23.142735025220304 -28.1875 18.75 C-25.78988929740126 16.107052388298086 -24.1616423173939 13.562694288315072 -22.5625 10.375 C-17.621888937969516 1.1790884426078492 -10.314571079481766 -2.129281429276375 0 0 Z " fill="#151826" transform="translate(550,345)"/>
<path d="M0 0 C6.4878761784161725 3.8679885708407937 10.322585370204592 9.861972638741179 14.44140625 16.03125 C15.437147509193665 17.36776678721867 16.436444844012158 18.701652184774446 17.44140625 20.03125 C19.44140625 23.03125 19.44140625 23.03125 19.44140625 26.03125 C20.101406249999968 26.03125 20.761406249999936 26.03125 21.44140625 26.03125 C22.761406249999936 28.671249999999986 24.081406249999986 31.311249999999973 25.44140625 34.03125 C29.48890808011072 32.00749908494464 30.728922649886158 30.467062560144257 33.44140625 27.03125 C34.10140624999997 27.03125 34.761406249999936 27.03125 35.44140625 27.03125 C35.687617187499995 26.480820312499986 35.93382812499999 25.930390624999973 36.1875 25.36328125 C41.12631045370472 16.178016948250104 49.6913420002594 7.116963857526173 59.44140625 3.03125 C62.083953857421875 2.7705535888671875 62.083953857421875 2.7705535888671875 65.12451171875 2.756591796875 C65.6952793884277 2.7518257904052916 65.6952793884277 2.7518257904052916 68.58370971679688 2.7277069091796875 C69.19831558227543 2.728162612915014 69.19831558227543 2.728162612915014 72.30859375 2.73046875 C73.57607452392574 2.7261836242676054 74.8435552978516 2.721898498535154 76.14944458007813 2.7174835205078125 C78.83105319169204 2.7117393525400075 81.51227702783808 2.7103054094395134 84.19384765625 2.715576171875 C87.61913689151027 2.7213635054773704 91.04388409803914 2.7044540541938886 94.46908378601074 2.6812314987182617 C97.74891608899247 2.6628964677709064 101.02871945578534 2.666680708415811 104.30859375 2.66796875 C105.53375701904292 2.6587590026855423 106.75892028808596 2.6495492553710847 108.02120971679688 2.6400604248046875 C114.73830675213799 2.676510976375255 119.84545044222489 2.828201477634991 125.0859375 7.49609375 C129.12890625 12.59375 129.12890625 12.59375 129.44140625 16.03125 C129.54453124999998 17.124374999999986 129.64765624999995 18.217499999999973 129.75390625 19.34375 C129.30788835210512 24.606761195159436 127.27597557347656 27.829766811828108 123.87890625 31.90625 C120.97232346016517 34.18096696595774 118.16057261710512 34.141412135888686 114.637939453125 34.09375 C113.66294998168951 34.08464599609374 112.6879605102539 34.07554199218748 111.68342590332031 34.066162109375 C110.63031723022459 34.054641113281264 109.57720855712887 34.04312011718753 108.4921875 34.03125 C106.2597655459665 34.03009131601311 104.02734109337268 34.0314742886049 101.794921875 34.03515625 C98.27642564455948 34.03957061761332 94.7605876881455 34.03134755280615 91.242431640625 33.97998046875 C87.84519053841746 33.93457877996758 84.45207764916631 33.946679558916344 81.0546875 33.96875 C80.01169998168939 33.941035156249995 78.96871246337889 33.91332031249999 77.89411926269531 33.884765625 C73.42158123950082 33.95750571391284 70.56636281362489 34.11223283018529 67.02803039550781 37.00282287597656 C65.0034419746213 39.26275838602726 63.20027523183353 41.56131235987789 61.44140625 44.03125 C60.638320312500014 44.99933593750001 59.83523437500003 45.967421875000014 59.0078125 46.96484375 C58.67716796874993 47.37798828125 58.67716796874993 47.37798828125 57.00390625 49.46875 C53.326934597445074 54.00009544445669 49.51077548696264 58.364980172800415 45.57421875 62.671875 C43.561653513878355 64.89822921724817 41.62563847345177 67.17446589079753 39.69140625 69.46875 C37.20244965932284 72.33307127372592 34.898366042046746 74.35215524386302 31.44140625 76.03125 C31.11140624999996 76.19624999999996 31.11140624999996 76.19624999999996 29.44140625 77.03125 C24.830103785644724 77.71440592064522 20.38333636046923 78.07276960942124 16.18359375 75.8203125 C10.896977111653882 71.40443271973436 7.159612270829257 65.76965226633831 3.44140625 60.03125 C2.3397803341429153 58.34209026235237 1.2357589838401282 56.65448939366928 0.12890625 54.96875 C-0.3416015625000455 54.235273437499984 -0.8121093749999773 53.50179687499997 -1.296875 52.74609375 C-2.55859375 51.03125 -2.55859375 51.03125 -4.55859375 50.03125 C-5.177343749999977 48.87625000000003 -5.7960937499999545 47.72125 -6.43359375 46.53125 C-7.691241015695027 44.28511982805753 -8.308289100594266 43.192736870584326 -10.49609375 41.78125 C-15.326485086776188 42.36675198021533 -19.50184958298928 49.06733280288739 -22.68359375 52.53125 C-23.107695312500027 52.990156249999984 -23.107695312500027 52.990156249999984 -25.25390625 55.3125 C-27.55859375 58.03125 -27.55859375 58.03125 -29.23828125 60.875 C-29.673984375000032 61.586562500000014 -30.10968749999995 62.29812500000003 -30.55859375 63.03125 C-31.218593749999968 63.03125 -31.87859375000005 63.03125 -32.55859375 63.03125 C-32.82285156249998 63.613906250000014 -33.087109374999955 64.19656250000003 -33.359375 64.796875 C-34.606418718884015 67.12035710814871 -35.98172526028054 68.8271210548645 -37.74609375 70.78125 C-38.056113281249964 71.12736328124998 -38.056113281249964 71.12736328124998 -39.625 72.87890625 C-40.26308593750002 73.5891796875 -40.901171875000045 74.29945312500001 -41.55859375 75.03125 C-42.76830700785638 76.42588757752878 -43.976680555212056 77.82168855570501 -45.18359375 79.21875 C-45.767539062499964 79.87230468749999 -46.35148437500004 80.52585937499998 -46.953125 81.19921875 C-48.31978834518043 82.75874456238353 -49.60513397835916 84.38892380976324 -50.87109375 86.03125 C-54.349495836854544 88.61982829719409 -56.719101495922246 88.80011678266351 -60.98828125 88.58984375 C-66.24227430695794 87.44801851117779 -69.80154779100428 84.04335101755964 -73.25390625 80.08984375 C-75.5050618514623 76.53787069020768 -75.17096568518116 73.09224283330695 -74.55859375 69.03125 C-73.46389255669533 65.89405437243431 -72.1125231595845 62.96567919756353 -70.55859375 60.03125 C-69.89859375000003 60.03125 -69.23859374999995 60.03125 -68.55859375 60.03125 C-68.32011718750005 59.471796874999995 -68.08164062499998 58.91234374999999 -67.8359375 58.3359375 C-66.27267860229063 55.51537863257323 -64.34278224390209 53.49524364638012 -62.12109375 51.15625 C-57.12629750684118 45.76331782441548 -52.589949399363036 40.10959474493359 -48.1015625 34.29296875 C-47.255483502271204 33.204501313953756 -46.4078228586136 32.11726148742275 -45.55859375 31.03125 C-45.108227539062455 30.453266601562518 -44.65786132812502 29.87528320312498 -44.19384765625 29.27978515625 C-43.02883987892949 27.82491082621158 -41.7985599253941 26.422790988005943 -40.55859375 25.03125 C-39.89859375000003 25.03125 -39.23859374999995 25.03125 -38.55859375 25.03125 C-38.465781249999964 24.690937500000018 -38.465781249999964 24.690937500000018 -37.99609375 22.96875 C-36.3148454583976 19.533155664986396 -34.23322075501153 17.598753454027474 -31.484375 14.9921875 C-29.44978796047576 12.92045789788807 -27.77862664823681 10.743631049071269 -26.05859375 8.40625 C-19.167629668472728 -0.47307596408245445 -11.391018501743702 -4.312935249515135 0 0 Z " fill="#171926" transform="translate(647.55859375,425.96875)"/>
<path d="M0 0 C1.2457832336425554 -0.0038269042968295253 2.4915664672851108 -0.007653808593772737 3.7751007080078125 -0.0115966796875 C7.069959890964924 -0.015004473679709918 10.36405550718814 0.001017371646526044 13.6588134765625 0.0234375 C15.67879153375452 0.03126165999879049 17.69807734422386 0.02344109536193173 19.718017578125 0.009765625 C23.60400678168446 -0.014908828701095445 27.48896838072949 -0.011965013189524143 31.375 0 C32.579200897216765 -0.008096923828134095 33.783401794433644 -0.01619384765626819 35.02409362792969 -0.0245361328125 C35.58323707580564 -0.01823181152349207 35.58323707580564 -0.01823181152349207 38.412841796875 0.013671875 C39.39544479370113 0.01685424804691138 40.378047790527376 0.020036621093709073 41.39042663574219 0.0233154296875 C44.70613516201274 0.6716053595124549 45.87692137216163 1.9535079778843283 47.98828125 4.53125 C49.59553759584287 7.745762691685741 49.04576309910033 10.967375355782792 48.98828125 14.53125 C46.24173034368505 15.904525453157476 44.00794556167125 15.688931432045592 40.933837890625 15.72412109375 C39.66234390258785 15.74018402099614 38.39084991455081 15.756246948242165 37.08082580566406 15.772796630859375 C35.68670314518522 15.784281087720274 34.29257303746783 15.794890134060552 32.8984375 15.8046875 C32.54818480491633 15.80734933853148 32.54818480491633 15.80734933853148 30.775693893432617 15.820819854736328 C27.06995614728396 15.847537947737806 23.36425198151835 15.866919519269686 19.658447265625 15.88134765625 C15.826818765738494 15.898018843844056 11.996046556730107 15.942819123033587 8.164742469787598 15.993719100952148 C5.2213794207031015 16.027329520906505 2.278221542747133 16.038917904147183 -0.6653156280517578 16.044574737548828 C-2.0779839056033325 16.05130151789251 -3.490638013128887 16.066560876316885 -4.903120040893555 16.090465545654297 C-6.877805349705568 16.121985700909363 -8.852948939176713 16.11916192970773 -10.827880859375 16.11474609375 C-11.390010299682672 16.118789520263704 -11.390010299682672 16.118789520263704 -14.234725952148438 16.139251708984375 C-17.01171875 15.53125 -17.01171875 15.53125 -18.886489868164063 13.201812744140625 C-20.18357331595007 10.123378847165782 -20.242556402671653 7.839923021627442 -20.01171875 4.53125 C-13.566251618899969 -0.1870310729797211 -7.812196965941325 -0.05279465380590409 0 0 Z " fill="#0DB9B4" transform="translate(533.01171875,553.46875)"/>
<path d="M0 0 C2.822052001953125 -0.3607635498046875 2.822052001953125 -0.3607635498046875 6.46923828125 -0.340576171875 C6.801005706787123 -0.34079521179194217 6.801005706787123 -0.34079521179194217 8.479949951171875 -0.3419036865234375 C10.677034997239048 -0.3398106809370347 12.873360490091613 -0.3164569874610379 15.0703125 -0.29296875 C16.592026601112593 -0.2873745798758591 18.113746098816932 -0.28310363721971044 19.635467529296875 -0.2801055908203125 C23.643644990620032 -0.26864261196533334 27.65149711782385 -0.239163299044435 31.6595458984375 -0.20599365234375 C35.74824624076359 -0.17532384485434704 39.83699907284779 -0.16160689061132416 43.92578125 -0.146484375 C51.95067025205674 -0.11429467364609991 59.97529467513459 -0.06308115854119478 68 0 C68.16499999999996 0.9900000000000091 68.16499999999996 0.9900000000000091 69 6 C69.65999999999997 6 70.31999999999994 6 71 6 C72.0225364734581 10.396906835869913 72.1682550595433 12.988728139844966 70 17 C68.80064392089844 18.621261596679688 68.80064392089844 18.621261596679688 67 20 C64.27442932128906 20.374221801757813 64.27442932128906 20.374221801757813 60.939697265625 20.372314453125 C59.69152725219726 20.378543243408217 58.44335723876952 20.384772033691434 57.15736389160156 20.391189575195313 C55.79370729575737 20.382500517649873 54.43005458365519 20.373182423155868 53.06640625 20.36328125 C51.66780090887244 20.36276251795448 50.2691948309149 20.36328072494814 48.87059020996094 20.364791870117188 C45.93925084426871 20.364702161705395 43.00818658066112 20.354277276802236 40.076904296875 20.336181640625 C36.32302815906371 20.313515270573816 32.569554707897396 20.31294666434735 28.81562900543213 20.31969928741455 C25.9271030096686 20.323044444076345 23.03866847072095 20.31639857175321 20.15015983581543 20.306570053100586 C18.766300623042298 20.302725602126998 17.382431221515844 20.301566708108794 15.998567581176758 20.30315589904785 C14.062254210702804 20.30352760465223 12.125954494882535 20.28940774512614 10.189697265625 20.274658203125 C9.088440093994109 20.270050811767533 7.987182922363331 20.26544342041018 6.8525543212890625 20.260696411132813 C4.045121738425792 20.00412369895423 2.3849592724616286 19.453074770840885 0 18 C0 17.340000000000032 0 16.67999999999995 0 16 C-0.6599999999999682 16 -1.32000000000005 16 -2 16 C-2.0540227425120747 13.896114305501897 -2.0928025572924867 11.79183286266823 -2.125 9.6875 C-2.148203125000009 8.515742187499995 -2.171406250000018 7.343984374999991 -2.1953125 6.13671875 C-2 3 -2 3 0 0 Z M-1 6 C-1.324693910020983 10.653946043633937 -0.9565722437928343 13.326405144818295 2 17 C4.7769927978515625 17.608001708984375 4.7769927978515625 17.608001708984375 8.183837890625 17.58349609375 C8.82116096496577 17.584921112060556 8.82116096496577 17.584921112060556 12.046401977539063 17.592132568359375 C13.438497715300059 17.569911775208993 14.830582520997154 17.54699678183931 16.22265625 17.5234375 C17.648464853325777 17.5166481486433 19.074284676625552 17.511925908707212 20.500106811523438 17.509185791015625 C23.487137688915595 17.498507641859078 26.473420294248626 17.471809202070176 29.460205078125 17.43212890625 C33.29267621398583 17.38121529549653 37.12471764479494 17.356114686962542 40.95748233795166 17.3411922454834 C44.60843348033461 17.326414037755285 48.25928328710086 17.301183280296982 51.91015625 17.2734375 C52.25955040931706 17.270982112884553 52.25955040931706 17.270982112884553 54.02769660949707 17.258556365966797 C56.00037119588421 17.242305933468856 57.972972523277804 17.217790971831846 59.945556640625 17.19287109375 C61.0690199279785 17.18001068115234 62.192483215332004 17.16715026855468 63.34999084472656 17.153900146484375 C66 17 66 17 68 16 C68.43906919779545 7.364972443355782 68.43906919779545 7.364972443355782 65 3 C62.42231774690504 1.7111588734525185 60.53812855008641 1.8517864989742066 57.651611328125 1.822998046875 C56.53317337036128 1.8101628112792696 55.41473541259768 1.7973275756835392 54.26240539550781 1.7841033935546875 C53.65514366149898 1.7804099273681686 53.65514366149898 1.7804099273681686 50.58203125 1.76171875 C49.33628829956058 1.7536470031737963 48.090545349121044 1.7455752563477063 46.80705261230469 1.7372589111328125 C44.16486889448004 1.7234060178587924 41.52281044316044 1.7123939544428595 38.880615234375 1.704833984375 C36.17726000336279 1.6959872892813337 33.474421026027585 1.6751483005371028 30.771240234375 1.643310546875 C26.87467918069649 1.6006535577851082 22.978796790255956 1.584464848796415 19.08203125 1.57421875 C18.47983009338384 1.5654647064209257 18.47983009338384 1.5654647064209257 15.432327270507813 1.5211639404296875 C8.72411398815575 1.5384671965155121 4.459092007969048 1.9838135341391308 -1 6 Z " fill="#C9F6F4" transform="translate(514,552)"/>
<path d="M0 0 C0.6276349639892942 0.0028298950195448924 0.6276349639892942 0.0028298950195448924 3.8038482666015625 0.01715087890625 C7.120159448057166 0.035684462572248776 10.435343317301658 0.07153732742835928 13.7513427734375 0.115966796875 C17.143374899547666 0.15709220888356867 20.53552410266309 0.1751984566315059 23.927734375 0.1953125 C30.568016667183656 0.23932405564846704 37.20777145751072 0.3061959565127381 43.84765625 0.390625 C44.012656249999964 1.0506249999999682 44.012656249999964 1.0506249999999682 44.84765625 4.390625 C44.2881578063965 4.228621063232367 43.728659362792996 4.066617126464848 43.15220642089844 3.8997039794921875 C40.68919400140328 3.3556204247807955 38.496125509309536 3.256714423359881 35.974853515625 3.245361328125 C35.010277252197284 3.238981475830087 34.04570098876957 3.2326016235351744 33.05189514160156 3.2260284423828125 C32.01641036987303 3.224915618896489 30.980925598144495 3.2238027954101653 29.9140625 3.22265625 C28.843974456787123 3.219327850341756 27.773886413574246 3.2159994506836256 26.671371459960938 3.2125701904296875 C24.409418025126115 3.207510122468875 22.147457135768832 3.205161580884692 19.885498046875 3.205322265625 C16.42679548632543 3.203135520065075 12.968411775377263 3.1849691339017454 9.509765625 3.166015625 C7.311199006914535 3.1630815725429784 5.112630874666479 3.161096856019185 2.9140625 3.16015625 C1.8806019592285566 3.1529707336426327 0.8471414184569994 3.1457852172851517 -0.2176361083984375 3.1383819580078125 C-1.1853645324706577 3.1414585876465253 -2.1530929565429915 3.1445352172851244 -3.150146484375 3.147705078125 C-3.997458343505855 3.146280059814444 -4.84477020263671 3.144855041503888 -5.7177581787109375 3.1433868408203125 C-8.533212338374142 3.4293031429207304 -10.636232888839345 4.099059506170875 -13.15234375 5.390625 C-13.96484375 8.015625 -13.96484375 8.015625 -14.15234375 10.390625 C-11.083858459153703 11.413453430282061 -8.798878632097512 11.581137089996787 -5.579345703125 11.687744140625 C-4.4383894348144395 11.727710113525404 -3.297433166503879 11.767676086425809 -2.1219024658203125 11.808853149414063 C-0.8905809020996003 11.847439422607408 0.34074066162111194 11.886025695800754 1.609375 11.92578125 C2.8703047180175645 11.968758392333939 4.131234436035129 12.011735534667991 5.4303741455078125 12.056015014648438 C8.77905517311899 12.169349724159588 12.127817507412715 12.27881344436139 15.4766845703125 12.38641357421875 C18.895372580908088 12.49720720511425 22.313888204762975 12.61307445619309 25.732421875 12.728515625 C32.43735078661064 12.953901206972432 39.142432906169915 13.174185833178399 45.84765625 13.390625 C45.51765624999996 14.050624999999968 45.18765625000003 14.71062500000005 44.84765625 15.390625 C36.81576557743392 15.506429430260368 28.784223093379296 15.595293336362147 20.751704216003418 15.649685859680176 C17.021913879474823 15.675790655482729 13.292694250899103 15.711202430433104 9.563232421875 15.767822265625 C5.964621994949994 15.822114198340728 2.366560733490246 15.852038891586062 -1.2324275970458984 15.865011215209961 C-2.606041835152837 15.87425650651619 -3.979625687545081 15.892311028551035 -5.353006362915039 15.919275283813477 C-7.275160304287738 15.955516001354795 -9.197865860848538 15.957666937037516 -11.120361328125 15.958251953125 C-11.667742080688527 15.96380348205571 -11.667742080688527 15.96380348205571 -14.437820434570313 15.991897583007813 C-17.15234375 15.390625 -17.15234375 15.390625 -19.017623901367188 13.062179565429688 C-20.326035739831582 9.981689147708266 -20.383585083077037 7.705084107437642 -20.15234375 4.390625 C-13.666079369915337 -0.3943919900304991 -7.867392184858204 -0.13415923753359493 0 0 Z " fill="#20AFAB" transform="translate(533.15234375,553.609375)"/>
<path d="M0 0 C2.822052001953125 -0.3607635498046875 2.822052001953125 -0.3607635498046875 6.46923828125 -0.340576171875 C6.801005706787123 -0.34079521179194217 6.801005706787123 -0.34079521179194217 8.479949951171875 -0.3419036865234375 C10.677034997239048 -0.3398106809370347 12.873360490091613 -0.3164569874610379 15.0703125 -0.29296875 C16.592026601112593 -0.2873745798758591 18.113746098816932 -0.28310363721971044 19.635467529296875 -0.2801055908203125 C23.643644990620032 -0.26864261196533334 27.65149711782385 -0.239163299044435 31.6595458984375 -0.20599365234375 C35.74824624076359 -0.17532384485434704 39.83699907284779 -0.16160689061132416 43.92578125 -0.146484375 C51.95067025205674 -0.11429467364609991 59.97529467513459 -0.06308115854119478 68 0 C68.16499999999996 0.9900000000000091 68.16499999999996 0.9900000000000091 69 6 C68.27562744140619 5.513217773437532 67.55125488281249 5.02643554687495 66.804931640625 4.52490234375 C61.618686140416 1.953842893230103 55.77175000299235 2.5729705487318597 50.12109375 2.6015625 C48.876267242431595 2.598692321777321 47.631440734863304 2.595822143554642 46.34889221191406 2.592864990234375 C43.051240394949446 2.590306316880742 39.75401601679437 2.602339630886945 36.4564208984375 2.619140625 C34.437688141267586 2.6249994539705312 32.41934609027123 2.6191544602741033 30.400634765625 2.60888671875 C26.51560338623608 2.5903560242235244 22.631149225959803 2.5925978947118438 18.74609375 2.6015625 C18.145005416870163 2.5985261535644213 18.145005416870163 2.5985261535644213 15.103134155273438 2.583160400390625 C14.542414627075232 2.587888641357381 14.542414627075232 2.587888641357381 11.704833984375 2.61181640625 C11.213134689331014 2.6130097961425918 11.213134689331014 2.6130097961425918 8.724838256835938 2.619049072265625 C5.542279059249154 3.063992501787993 3.6692479476071185 4.26352103047202 1 6 C0.34000000000003183 6 -0.32000000000005 6 -1 6 C-0.34000000000003183 9.299999999999955 0.32000000000005 12.600000000000023 1 16 C0.009999999999990905 16 -0.9800000000000182 16 -2 16 C-2.0540227425120747 13.896114305501897 -2.0928025572924867 11.79183286266823 -2.125 9.6875 C-2.148203125000009 8.515742187499995 -2.171406250000018 7.343984374999991 -2.1953125 6.13671875 C-2 3 -2 3 0 0 Z " fill="#CBFDFD" transform="translate(514,552)"/>
<path d="M0 0 C0.6276349639892942 0.0028298950195448924 0.6276349639892942 0.0028298950195448924 3.8038482666015625 0.01715087890625 C7.120159448057166 0.035684462572248776 10.435343317301658 0.07153732742835928 13.7513427734375 0.115966796875 C17.143374899547666 0.15709220888356867 20.53552410266309 0.1751984566315059 23.927734375 0.1953125 C30.568016667183656 0.23932405564846704 37.20777145751072 0.3061959565127381 43.84765625 0.390625 C43.84765625 0.7206250000000409 43.84765625 1.0506249999999682 43.84765625 1.390625 C43.51494972229 1.3935581207275618 43.51494972229 1.3935581207275618 41.83125305175781 1.4084014892578125 C34.90423048222499 1.4723459639873226 27.97767204403965 1.5567689141073515 21.051025390625 1.653076171875 C18.466126708177626 1.6863261078668756 15.881155409983421 1.7143577741683202 13.296142578125 1.737060546875 C9.579926155436397 1.7706042710667589 5.864375243244808 1.8229222834422671 2.1484375 1.87890625 C0.9930598449707304 1.8852961730957531 -0.16231781005853918 1.8916860961913926 -1.3527069091796875 1.8982696533203125 C-1.8930783843993595 1.9081667327881178 -1.8930783843993595 1.9081667327881178 -4.627685546875 1.958251953125 C-5.575886688232458 1.9693550109863054 -6.524087829589803 1.9804580688476108 -7.5010223388671875 1.9918975830078125 C-10.686605886032794 2.470971713379413 -12.598092251509911 3.4434302966634505 -15.15234375 5.390625 C-15.587491216824219 8.871804734593525 -15.261213635692457 11.064015342922517 -14.15234375 14.390625 C5.6476562499999545 14.060624999999959 25.447656250000023 13.730625000000032 45.84765625 13.390625 C45.51765624999996 14.050624999999968 45.18765625000003 14.71062500000005 44.84765625 15.390625 C36.81576557743392 15.506429430260368 28.784223093379296 15.595293336362147 20.751704216003418 15.649685859680176 C17.021913879474823 15.675790655482729 13.292694250899103 15.711202430433104 9.563232421875 15.767822265625 C5.964621994949994 15.822114198340728 2.366560733490246 15.852038891586062 -1.2324275970458984 15.865011215209961 C-2.606041835152837 15.87425650651619 -3.979625687545081 15.892311028551035 -5.353006362915039 15.919275283813477 C-7.275160304287738 15.955516001354795 -9.197865860848538 15.957666937037516 -11.120361328125 15.958251953125 C-11.667742080688527 15.96380348205571 -11.667742080688527 15.96380348205571 -14.437820434570313 15.991897583007813 C-17.15234375 15.390625 -17.15234375 15.390625 -19.017623901367188 13.062179565429688 C-20.326035739831582 9.981689147708266 -20.383585083077037 7.705084107437642 -20.15234375 4.390625 C-13.666079369915337 -0.3943919900304991 -7.867392184858204 -0.13415923753359493 0 0 Z " fill="#4CB0AA" transform="translate(533.15234375,553.609375)"/>
<path d="M0 0 C0.3300000000000409 0.3299999999999841 0.6599999999999682 0.660000000000025 1 1 C4.028070443314846 1.1603555974326127 7.035854537948808 1.2596044771624406 10.06640625 1.31640625 C10.975029144287078 1.3371873474121116 11.883652038574269 1.3579684448242233 12.819808959960938 1.3793792724609375 C15.733959459277912 1.4449767183797348 18.648203039751593 1.5038068018692456 21.5625 1.5625 C23.533212907952134 1.6056755433185685 25.503916263475844 1.6492895065986204 27.474609375 1.693359375 C32.31630988014308 1.8006684341906976 37.158104366076145 1.9019067460002361 42 2 C42 2.329999999999984 42 2.660000000000025 42 3 C41.417842254638686 3.0058662414550668 40.83568450927737 3.0117324829101335 40.23588562011719 3.0177764892578125 C34.18501039253101 3.0816353410917827 28.134670758107404 3.1660350435839746 22.084228515625 3.262451171875 C19.825185693552385 3.2957368599742267 17.56605897485406 3.3237573338986977 15.306884765625 3.346435546875 C12.062298516573719 3.3799142633855013 8.818483674263007 3.4322271798561133 5.57421875 3.48828125 C5.067926864624042 3.4914762115478766 5.067926864624042 3.4914762115478766 2.5057830810546875 3.5076446533203125 C1.5650343322754452 3.527438812255866 0.6242855834960892 3.54723297119142 -0.344970703125 3.567626953125 C-1.1732588195800417 3.5787300109863054 -2.001546936035197 3.5898330688476676 -2.8549346923828125 3.6012725830078125 C-5.45181492002655 4.083983921319771 -6.350159621360717 4.9900293894116885 -8 7 C-8.659999999999968 6.670000000000016 -9.32000000000005 6.339999999999975 -10 6 C-10 5.339999999999975 -10 4.680000000000007 -10 4 C-10.330000000000041 3.339999999999975 -10.659999999999968 2.680000000000007 -11 2 C-10.669999999999959 1.339999999999975 -10.340000000000032 0.6800000000000068 -10 0 C-6.383082751296456 -0.8841353274608537 -3.5317290908379846 -1.3080478114214884 0 0 Z " fill="#0E1016" transform="translate(722,457)"/>
<path d="M0 0 C4.516525295023939 4.516525295023882 5.15420244779375 5.426203599060898 5.25 11.4375 C5.275781250000023 12.405585937500007 5.3015625000000455 13.373671875000014 5.328125 14.37109375 C5 17 5 17 3.484375 18.84765625 C2.9945312500000227 19.227929687500023 2.5046875000000455 19.60820312499999 2 20 C1.3400000000000318 19.670000000000016 0.67999999999995 19.339999999999975 0 19 C0 12.730000000000018 0 6.4599999999999795 0 0 Z " fill="#1F2027" transform="translate(630,368)"/>
<path d="M0 0 C0.660000000000025 0 1.3199999999999932 0 2 0 C2.00364562988284 0.6676336669921739 2.0072912597656227 1.3352673339843477 2.01104736328125 2.02313232421875 C2.0528283023730296 8.966297640636185 2.122143258388121 15.90879919758288 2.20751953125 22.8515625 C2.235761071284344 25.44329187510573 2.2569596523067617 28.03510789106315 2.27099609375 30.626953125 C2.2923806243137506 34.350712713831 2.3390108577993374 38.07342700960146 2.390625 41.796875 C2.3912393188476813 42.37714447021483 2.3912393188476813 42.37714447021483 2.39434814453125 45.31365966796875 C2.4140667724609557 46.39447814941411 2.4337854003906045 47.47529663085936 2.4541015625 48.5888671875 C2.4629840087890784 49.53928894042974 2.4718664550781 50.48971069335937 2.48101806640625 51.46893310546875 C3.14176977539654 54.691409010457505 4.529053749240177 55.911252955092095 7 58 C6.670000000000016 58.164999999999964 6.670000000000016 58.164999999999964 5 59 C4.670000000000016 59.99000000000001 4.339999999999975 60.98000000000002 4 62 C1.4209367108014703 58.257415363235395 0.6178379832273322 55.72898608710568 0.567626953125 51.199951171875 C0.5577298736572516 50.62954856872557 0.5577298736572516 50.62954856872557 0.5076446533203125 47.74296569824219 C0.5012547302246162 46.52196670532226 0.4948648071289199 45.300967712402326 0.48828125 44.04296875 C0.47033004760743324 42.78486892700198 0.4523788452148665 41.526769104003904 0.4338836669921875 40.23054504394531 C0.3889423765699007 36.898177457810505 0.35661711317374056 33.566176351411855 0.3304443359375 30.233642578125 C0.3005787480984736 26.828152895418498 0.25406920570713964 23.422894307906517 0.208984375 20.017578125 C0.12401661765153449 13.34515892808281 0.05568131383023456 6.6727243821082425 0 0 Z " fill="#2B2F36" transform="translate(402,466)"/>
<path d="M0 0 C19.139999999999986 0 38.27999999999997 0 58 0 C58.164999999999964 0.9900000000000091 58.164999999999964 0.9900000000000091 59 6 C58.09370849609377 5.352568359375027 57.187416992187536 4.705136718750055 56.253662109375 4.0380859375 C51.06342900389052 1.0908930367718312 45.77501757237667 1.3971330775384558 39.94140625 1.390625 C38.79711654663083 1.3740887451172057 37.652826843261664 1.3575524902344114 36.47386169433594 1.34051513671875 C32.83668604545676 1.2921211364288183 29.19992830454271 1.2706822369713109 25.5625 1.25 C23.089171782119365 1.2218332934151022 20.615862957025115 1.191904894042409 18.142578125 1.16015625 C12.09512772664641 1.0863642578376584 6.04779444543999 1.034671295033604 0 1 C0 0.6699999999999591 0 0.34000000000003183 0 0 Z " fill="#E0FDFC" transform="translate(524,552)"/>
<path d="M0 0 C0.6599999999999682 0 1.32000000000005 0 2 0 C5.488761195982079 4.293859933516387 5.268540222851698 7.718708950582595 5 13 C3.67999999999995 13.330000000000041 2.3600000000000136 13.659999999999968 1 14 C1 13.669999999999959 1 13.340000000000032 1 13 C-6.919999999999959 12.669999999999959 -14.840000000000032 12.340000000000032 -23 12 C-19.144936353449907 10.07246817672501 -18.236027696564747 9.766921301502293 -14.234375 10.0234375 C-13.344921874999955 10.075000000000045 -12.455468750000023 10.126562499999977 -11.5390625 10.1796875 C-10.618671875000018 10.244140625 -9.698281250000036 10.30859375 -8.75 10.375 C-7.81414062500005 10.431718749999959 -6.878281249999986 10.488437500000032 -5.9140625 10.546875 C-3.6087475390611417 10.688016732302344 -1.304268645361617 10.842697527899645 1 11 C0.6699999999999591 7.3700000000000045 0.34000000000003183 3.740000000000009 0 0 Z " fill="#22B9AF" transform="translate(577,555)"/>
<path d="M0 0 C0.7425000000000068 0.14437499999996817 1.4850000000000136 0.28875000000005 2.25 0.4375 C4 1 4 1 6 3 C5.670000000000016 3.4950000000000045 5.670000000000016 3.4950000000000045 4 6 C1.8359375 6.29296875 1.8359375 6.29296875 -0.625 6.1875 C-1.4422656250000045 6.160429687500027 -2.259531250000009 6.133359375000055 -3.1015625 6.10546875 C-3.414804687500009 6.08806640625005 -3.414804687500009 6.08806640625005 -5 6 C-4.339999999999975 5.669999999999959 -3.680000000000007 5.340000000000032 -3 5 C-3 4.340000000000032 -3 3.67999999999995 -3 3 C-4.980000000000018 3.330000000000041 -6.9599999999999795 3.659999999999968 -9 4 C-9.660000000000025 3.009999999999991 -10.319999999999993 2.019999999999982 -11 1 C-6.897210594247099 -1.0513947028764505 -4.434303930979354 -1.037815813633415 0 0 Z " fill="#11141D" transform="translate(422,529)"/>
<path d="M0 0 C17.82000000000005 0 35.639999999999986 0 54 0 C54.164999999999964 0.49500000000000455 54.164999999999964 0.49500000000000455 55 3 C54.72296234130863 2.919617385864285 54.72296234130863 2.919617385864285 53.32098388671875 2.5128326416015625 C50.779528455721106 1.9512857434739317 48.46647153379922 1.8397655958826817 45.8642578125 1.794677734375 C44.843501586914044 1.7747325134276934 43.82274536132809 1.7547872924805006 42.77105712890625 1.7342376708984375 C41.67613952636714 1.717525177001903 40.58122192382814 1.7008126831054824 39.453125 1.68359375 C38.326786499023456 1.6628126525879452 37.20044799804691 1.6420315551757767 36.03997802734375 1.6206207275390625 C32.44338050723968 1.5552566721557923 28.846710225063703 1.4963011480808746 25.25 1.4375 C22.81119040381884 1.3943022978519366 20.37238815535636 1.3506876033161461 17.93359375 1.306640625 C11.955805996502932 1.199588700700474 5.977945925164931 1.0977978270260564 0 1 C0 0.6699999999999591 0 0.34000000000003183 0 0 Z " fill="#23A69F" transform="translate(523,555)"/>
<path d="M0 0 C0.6599999999999682 0.660000000000025 1.32000000000005 1.3199999999999932 2 2 C2.330000000000041 1.670000000000016 2.659999999999968 1.339999999999975 3 1 C4.9995836369269 0.9591921706749531 7.000452539885828 0.9574564370188341 9 1 C7.6419952897247185 3.9653049712290453 6.075717367854168 6.291312707234113 3.9375 8.75 C3.6738867187500546 9.056796874999975 3.6738867187500546 9.056796874999975 2.33984375 10.609375 C1.897695312499991 11.068281249999984 1.4555468749999818 11.527187500000025 1 12 C0.6699999999999591 12 0.34000000000003183 12 0 12 C0 8.04000000000002 0 4.079999999999984 0 0 Z " fill="#DADBE1" transform="translate(552,424)"/>
<path d="M0 0 C0.6599999999999682 0 1.32000000000005 0 2 0 C1.4846204836868537 7.1339375152819 0.559940993779378 14.018128173472974 -1 21 C-1.330000000000041 21 -1.6599999999999682 21 -2 21 C-2.027241498680496 19.58344206861426 -2.046504666356327 18.166729551299 -2.0625 16.75 C-2.0741015625000045 15.961093749999975 -2.085703125000009 15.172187500000007 -2.09765625 14.359375 C-2.003853062257008 12.093089984130074 -1.632410626693968 10.171110497941356 -1 8 C-2.32000000000005 8 -3.6399999999999864 8 -5 8 C-5 8.660000000000025 -5 9.319999999999993 -5 10 C-5.659999999999968 9.670000000000016 -6.32000000000005 9.339999999999975 -7 9 C-5.726041097251368 6.961665755602098 -4.38938077352725 4.961478739097288 -3 3 C-2.340000000000032 3 -1.67999999999995 3 -1 3 C-0.6699999999999591 2.009999999999991 -0.34000000000003183 1.0199999999999818 0 0 Z " fill="#C7CDD0" transform="translate(523,413)"/>
<path d="M0 0 C2.3828125 -0.29296875 2.3828125 -0.29296875 5.125 -0.1875 C6.035078125000041 -0.16042968750002728 6.945156249999968 -0.13335937500005457 7.8828125 -0.10546875 C8.581484374999945 -0.07066406249998636 9.280156250000005 -0.035859374999972715 10 0 C2.100840336134411 6 2.100840336134411 6 -1 6 C-0.34000000000003183 9.299999999999955 0.32000000000005 12.600000000000023 1 16 C0.009999999999990905 16 -0.9800000000000182 16 -2 16 C-2.0540227425120747 13.896114305501897 -2.0928025572924867 11.79183286266823 -2.125 9.6875 C-2.148203125000009 8.515742187499995 -2.171406250000018 7.343984374999991 -2.1953125 6.13671875 C-2 3 -2 3 0 0 Z " fill="#CCF5EE" transform="translate(514,552)"/>
<path d="M0 0 C2 3 2 3 2 5 C1.009999999999991 5.330000000000041 0.01999999999998181 5.659999999999968 -1 6 C-2.6887387854455937 7.644298291091786 -4.353055147949362 9.31384217528148 -6 11 C-8.625 13.375 -8.625 13.375 -11 15 C-11.990000000000009 14.669999999999959 -12.980000000000018 14.340000000000032 -14 14 C-13.009999999999991 13.669999999999959 -12.019999999999982 13.340000000000032 -11 13 C-11 12.340000000000032 -11 11.67999999999995 -11 11 C-10.339999999999975 11 -9.680000000000007 11 -9 11 C-8.744765625000014 10.417343749999986 -8.489531250000027 9.834687499999973 -8.2265625 9.234375 C-6.882589126052892 6.786117771026284 -5.381897043123558 5.182567523007833 -3.375 3.25 C-2.7433593750000114 2.63640625000005 -2.1117187500000227 2.0228124999999864 -1.4609375 1.390625 C-0.9788281250000068 0.9317187499999591 -0.49671875000001364 0.47281250000003183 0 0 Z " fill="#D3D6D7" transform="translate(354,520)"/>
<path d="M0 0 C0 2.6666666666666856 0 5.333333333333314 0 8 C-0.3299999999999841 8.16500000000002 -0.3299999999999841 8.16500000000002 -2 9 C-2 9.660000000000025 -2 10.319999999999993 -2 11 C-2.990000000000009 10.670000000000016 -3.980000000000018 10.339999999999975 -5 10 C-5.242343749999975 10.565898437499982 -5.484687500000007 11.131796874999964 -5.734375 11.71484375 C-6.069531250000011 12.448320312499959 -6.404687500000023 13.181796875000032 -6.75 13.9375 C-6.912421875000007 14.302949218749973 -6.912421875000007 14.302949218749973 -7.734375 16.15234375 C-9 18 -9 18 -11.140625 18.75390625 C-11.447421874999975 18.79451171874996 -11.447421874999975 18.79451171874996 -13 19 C-9.408789583618955 12.129858333879838 -4.7077814900405315 6.126151554347587 0 0 Z " fill="#C7C7CF" transform="translate(456,501)"/>
<path d="M0 0 C0 0.3299999999999841 0 0.660000000000025 0 1 C-0.46406250000001137 1.0515624999999886 -0.46406250000001137 1.0515624999999886 -2.8125 1.3125 C-6 2 -6 2 -7.41015625 3.48046875 C-9.903580595334063 5.863618799963035 -12.725282667539716 5.8602380842780235 -16.0390625 6.375 C-16.686171875000014 6.581250000000011 -17.333281250000027 6.787500000000023 -18 7 C-18.329999999999984 7.990000000000009 -18.660000000000025 8.980000000000018 -19 10 C-19.660000000000025 10 -20.319999999999993 10 -21 10 C-16.924044184687148 0.6719419152044566 -9.422899816779704 -0.9353613788715052 0 0 Z " fill="#353439" transform="translate(417,419)"/>
<path d="M0 0 C3.9667972251992296 0.5535065895626872 7.316822828474301 1.4491885593575944 11 3 C11.680624999999964 3.1650000000000205 12.361250000000041 3.329999999999984 13.0625 3.5 C15.228480636158338 4.058962744815062 17.033157878070597 4.946334577537812 19 6 C17.38554060695867 7.614459393041329 15.668125830979761 7.325117324546113 13.4375 7.4375 C8.144055787585216 7.422267067014673 5.386677799493668 5.744199030011487 1.3984375 2.41015625 C0 1 0 1 0 0 Z " fill="#3E4045" transform="translate(576,507)"/>
<path d="M0 0 C0.3299999999999841 0.660000000000025 0.660000000000025 1.3199999999999932 1 2 C-0.375 4 -0.375 4 -2 6 C-2.660000000000025 6 -3.319999999999993 6 -4 6 C-4.061874999999986 6.556874999999991 -4.123749999999973 7.113749999999982 -4.1875 7.6875 C-5.3337387169098065 10.949871732743361 -7.493901972864251 12.686678744182416 -10 15 C-10.990000000000009 14.670000000000016 -11.980000000000018 14.339999999999975 -13 14 C-11.021083640065797 11.853935350237293 -9.041879010345724 9.708137860249906 -7.0625 7.5625 C-6.49853515625 6.950839843749975 -5.9345703125 6.339179687500007 -5.353515625 5.708984375 C-4.815332031250023 5.125683593750011 -4.277148437499989 4.542382812500023 -3.72265625 3.94140625 C-3.22515869140625 3.4020141601562273 -2.7276611328125 2.8626220703125114 -2.215087890625 2.306884765625 C-1.4891892866880312 1.526146323415901 -0.7538173844973244 0.7538173844973244 0 0 Z " fill="#C8C8CE" transform="translate(383,488)"/>
<path d="M0 0 C0.3300000000000409 0.660000000000025 0.6599999999999682 1.3199999999999932 1 2 C-2.625 7.875 -2.625 7.875 -6 9 C-5.669999999999959 9.990000000000009 -5.340000000000032 10.980000000000018 -5 12 C-7.309999999999945 13.649999999999977 -9.620000000000005 15.300000000000011 -12 17 C-12 12.89424732927597 -9.820462740549146 11.299419981231495 -7.125 8.5 C-4.502940487480828 5.721065132031015 -2.1203073663145915 3.1804610494718304 0 0 Z " fill="#C9C9CD" transform="translate(606,419)"/>
<path d="M0 0 C1 2 1 2 0.328125 4.3125 C-0.02765625000000682 5.199374999999975 -0.38343750000001364 6.086250000000007 -0.75 7 C-1.095468750000009 7.886874999999975 -1.4409375000000182 8.773750000000007 -1.796875 9.6875 C-3 12 -3 12 -6 14 C-6 14.660000000000025 -6 15.319999999999993 -6 16 C-7.319999999999993 15.670000000000016 -8.639999999999986 15.339999999999975 -10 15 C-8.378154994844067 11.414868935971072 -6.207437614763478 8.410076768389217 -3.875 5.25 C-3.150546874999975 4.265156250000018 -2.426093750000007 3.2803124999999795 -1.6796875 2.265625 C-1.1253906250000227 1.5179687500000227 -0.5710937499999886 0.7703124999999886 0 0 Z " fill="#444649" transform="translate(483,414)"/>
<path d="M0 0 C0.9900000000000091 0.9900000000000091 1.9800000000000182 1.9800000000000182 3 3 C2.669999999999959 3.1650000000000205 2.669999999999959 3.1650000000000205 1 4 C0.34000000000003183 3.670000000000016 -0.32000000000005 3.339999999999975 -1 3 C-0.34000000000003183 4.319999999999993 0.32000000000005 5.639999999999986 1 7 C-1.9382859679354851 9.502984343056141 -4.179027610495609 10.46930939034661 -8 11 C-8.330000000000041 10.339999999999975 -8.659999999999968 9.680000000000007 -9 9 C-7.350000000000023 8.339999999999975 -5.7000000000000455 7.680000000000007 -4 7 C-4.659999999999968 7 -5.32000000000005 7 -6 7 C-6 6.339999999999975 -6 5.680000000000007 -6 5 C-5.340000000000032 5 -4.67999999999995 5 -4 5 C-4 4.339999999999975 -4 3.680000000000007 -4 3 C-2.67999999999995 2.670000000000016 -1.3600000000000136 2.339999999999975 0 2 C0 1.339999999999975 0 0.6800000000000068 0 0 Z " fill="#121118" transform="translate(601,381)"/>
<path d="M0 0 C0.660000000000025 0.9900000000000091 1.3199999999999932 1.9800000000000182 2 3 C1.6906250000000114 3.1031249999999773 1.6906250000000114 3.1031249999999773 0.125 3.625 C-2.8383973888906553 5.5424924281057315 -3.017371966817791 7.701177317174086 -4 11 C-4.329999999999984 11.16500000000002 -4.329999999999984 11.16500000000002 -6 12 C-6.625 14.5625 -6.625 14.5625 -7 17 C-8.319999999999993 17 -9.639999999999986 17 -11 17 C-9.24933204053491 13.11390189217633 -6.816759940640964 9.721877415598897 -4.375 6.25 C-3.954765624999993 5.648007812499998 -3.5345312499999864 5.0460156249999955 -3.1015625 4.42578125 C-2.070068625560623 2.9488695661435713 -1.035354212214088 1.4742080552513812 0 0 Z " fill="#C8CCCF" transform="translate(498,445)"/>
<path d="M0 0 C1.9800000000000182 0.6599999999999682 3.9600000000000364 1.32000000000005 6 2 C6.749260706433233 5.663052342562423 7.238001398263805 8.42355151612685 6 12 C5.009999999999991 12 4.019999999999982 12 3 12 C2.8672265625000364 11.301328125000055 2.734453124999959 10.602656249999995 2.59765625 9.8828125 C2.421054687500032 8.972734374999959 2.24445312499995 8.062656250000032 2.0625 7.125 C1.8884765625000455 6.220078124999986 1.7144531249999773 5.315156249999973 1.53515625 4.3828125 C1 2 1 2 0 0 Z " fill="#E0FDFA" transform="translate(579,556)"/>
<path d="M0 0 C1.4308852826513885 2.861770565302777 0.5999169663407429 4.93375772759191 0 8 C0.9900000000000091 8 1.9800000000000182 8 3 8 C3 8.660000000000025 3 9.319999999999993 3 10 C2.009999999999991 9.83499999999998 2.009999999999991 9.83499999999998 -3 9 C-3.329999999999984 9.660000000000025 -3.660000000000025 10.319999999999993 -4 11 C-4 10.009999999999991 -4 9.019999999999982 -4 8 C-4.660000000000025 7.670000000000016 -5.319999999999993 7.339999999999975 -6 7 C-4.019999999999982 4.689999999999998 -2.0400000000000205 2.3799999999999955 0 0 Z " fill="#15202A" transform="translate(331,499)"/>
<path d="M0 0 C0.9900000000000091 0.3299999999999841 1.9800000000000182 0.660000000000025 3 1 C1.0742388459173071 3.4392974618380663 -0.800905945820432 5.800905945820432 -3 8 C-3.660000000000025 8 -4.319999999999993 8 -5 8 C-5.660000000000025 9.649999999999977 -6.319999999999993 11.300000000000011 -7 13 C-7.990000000000009 12.339999999999975 -8.980000000000018 11.680000000000007 -10 11 C-8.897188732783832 9.727990291786284 -7.792692309776271 8.457441473966526 -6.6875 7.1875 C-6.072617187499986 6.479804687500007 -5.457734374999973 5.772109375000014 -4.82421875 5.04296875 C-3.266656650191976 3.2986326082449864 -1.673411250857555 1.6322195892980176 0 0 Z " fill="#CBCED4" transform="translate(397,472)"/>
<path d="M0 0 C1.337048475404515 2.67409695080903 1.4837915962535249 4.028137337299825 1 7 C-0.8364193646788181 9.190918039506073 -2.5652442344712085 10.376829489647491 -5 12 C-5.990000000000009 11.670000000000016 -6.980000000000018 11.339999999999975 -8 11 C-5.360000000000014 7.3700000000000045 -2.7200000000000273 3.740000000000009 0 0 Z " fill="#2B2C2F" transform="translate(457,449)"/>
<path d="M0 0 C0.9900000000000091 0.9900000000000091 1.9800000000000182 1.9800000000000182 3 3 C1.0199999999999818 5.970000000000027 -0.9599999999999795 8.940000000000055 -3 12 C-3.990000000000009 11.669999999999959 -4.980000000000018 11.340000000000032 -6 11 C-5.339999999999975 9.67999999999995 -4.680000000000007 8.360000000000014 -4 7 C-3.670000000000016 7 -3.339999999999975 7 -3 7 C-2.8762500000000273 6.030624999999986 -2.7524999999999977 5.061249999999973 -2.625 4.0625 C-2.4187499999999886 3.0518749999999955 -2.2124999999999773 2.041249999999991 -2 1 C-1.339999999999975 0.6700000000000159 -0.6800000000000068 0.339999999999975 0 0 Z " fill="#1D1C2A" transform="translate(449,504)"/>
<path d="M0 0 C6.16993041108617 0.7258741660101578 10.65709574326695 1.432462764470415 15 6 C5.338674504598487 5.389589456717545 5.338674504598487 5.389589456717545 1 2 C0.6700000000000159 1.3400000000000318 0.339999999999975 0.67999999999995 0 0 Z " fill="#3F4148" transform="translate(322,530)"/>
<path d="M0 0 C0 0.9900000000000091 0 1.9800000000000182 0 3 C0.06187499999998636 3.9281250000000227 0.12374999999997272 4.8562500000000455 0.1875 5.8125 C-0.030526158783288793 9.518944699316194 -1.1735349319078523 11.803686130838742 -3 15 C-3.329999999999984 15 -3.660000000000025 15 -4 15 C-4.6301969365426885 5.9846827133478655 -4.6301969365426885 5.9846827133478655 -2 1.875 C-1.339999999999975 1.2562500000000227 -0.6800000000000068 0.6374999999999886 0 0 Z " fill="#474850" transform="translate(322,509)"/>
<path d="M0 0 C1 2 1 2 0.4375 4.375 C-1.4455268528874967 7.81357077483807 -3.5986739874121554 9.125799952247519 -7 11 C-7.990000000000009 11 -8.980000000000018 11 -10 11 C-6.699999999999989 7.3700000000000045 -3.3999999999999773 3.740000000000009 0 0 Z " fill="#3C4044" transform="translate(342,487)"/>
<path d="M0 0 C2.25 -0.25 2.25 -0.25 5 0 C7.1875 1.875 7.1875 1.875 9 4 C9.659999999999968 4.660000000000025 10.32000000000005 5.319999999999993 11 6 C7.3700000000000045 5.670000000000016 3.740000000000009 5.339999999999975 0 5 C0 3.3500000000000227 0 1.6999999999999886 0 0 Z " fill="#11161A" transform="translate(541,345)"/>
<path d="M0 0 C3.2774209774626115 3.1002630867889707 5.931048374956163 5.970988940704217 8 10 C8 10.660000000000025 8 11.319999999999993 8 12 C7.009999999999991 11.670000000000016 6.019999999999982 11.339999999999975 5 11 C5.330000000000041 10.339999999999975 5.659999999999968 9.680000000000007 6 9 C4.67999999999995 9 3.3600000000000136 9 2 9 C1.3400000000000318 6.029999999999973 0.67999999999995 3.0600000000000023 0 0 Z " fill="#C2C5CA" transform="translate(644,476)"/>
<path d="M0 0 C1.32000000000005 0.3299999999999841 2.6399999999999864 0.660000000000025 4 1 C3.340000000000032 1 2.67999999999995 1 2 1 C2 2.980000000000018 2 4.9599999999999795 2 7 C2.659999999999968 7 3.32000000000005 7 4 7 C4 8.649999999999977 4 10.300000000000011 4 12 C3.340000000000032 12 2.67999999999995 12 2 12 C-0.13586678165165722 8.796199827522457 -0.23132174866645983 7.980600328991613 -0.125 4.3125 C-0.10695312500001819 3.5042578124999864 -0.08890625000003638 2.6960156249999727 -0.0703125 1.86328125 C-0.047109374999990905 1.2483984374999864 -0.02390624999998181 0.6335156249999727 0 0 Z " fill="#212222" transform="translate(573,495)"/>
<path d="M0 0 C0.3300000000000409 0.660000000000025 0.6599999999999682 1.3199999999999932 1 2 C0.0625 4.125 0.0625 4.125 -1 6 C-1.6599999999999682 6 -2.32000000000005 6 -3 6 C-3 7.649999999999977 -3 9.300000000000011 -3 11 C-4.649999999999977 11 -6.2999999999999545 11 -8 11 C-6.63629700645572 8.00779731513586 -5.050919169277677 5.709734713096452 -2.875 3.25 C-2.336171874999991 2.636406249999993 -1.7973437499999818 2.0228124999999864 -1.2421875 1.390625 C-1.0372265624999955 1.1611718749999795 -1.0372265624999955 1.1611718749999795 0 0 Z " fill="#C7C8CD" transform="translate(613,492)"/>
<path d="M0 0 C0.9900000000000091 0.660000000000025 1.9800000000000182 1.3199999999999932 3 2 C2.669999999999959 2.660000000000025 2.340000000000032 3.319999999999993 2 4 C1.3400000000000318 4 0.67999999999995 4 0 4 C-0.26812500000005457 4.598124999999982 -0.5362499999999955 5.1962500000000205 -0.8125 5.8125 C-1.9849346698114232 7.972248075968423 -3.193692817700594 9.357902561546041 -5 11 C-5.330000000000041 9.680000000000007 -5.659999999999968 8.360000000000014 -6 7 C-5.009999999999991 6.339999999999975 -4.019999999999982 5.680000000000007 -3 5 C-3 4.009999999999991 -3 3.019999999999982 -3 2 C-2.009999999999991 2 -1.0199999999999818 2 0 2 C0 1.339999999999975 0 0.6800000000000068 0 0 Z " fill="#292A31" transform="translate(615,485)"/>
<path d="M0 0 C0.8125 1.6875 0.8125 1.6875 1 4 C-1.3125 6.75 -1.3125 6.75 -4 9 C-4.659999999999968 9 -5.32000000000005 9 -6 9 C-5.125 4.25 -5.125 4.25 -4 2 C-1.9375 0.875 -1.9375 0.875 0 0 Z " fill="#2A2D2E" transform="translate(581,484)"/>
<path d="M0 0 C0.660000000000025 0 1.3199999999999932 0 2 0 C2.329999999999984 0.9900000000000091 2.660000000000025 1.9800000000000182 3 3 C1.56640625 5.04296875 1.56640625 5.04296875 -0.4375 7.1875 C-1.0962109375000182 7.902929687499977 -1.7549218749999795 8.618359375000011 -2.43359375 9.35546875 C-2.950507812500007 9.898164062499973 -3.4674218750000136 10.440859375000002 -4 11 C-5 8 -5 8 -3.6875 5.3125 C-3.130625000000009 4.549374999999998 -2.573750000000018 3.7862499999999955 -2 3 C-1.339999999999975 3 -0.6800000000000068 3 0 3 C0 2.009999999999991 0 1.0199999999999818 0 0 Z " fill="#252830" transform="translate(385,480)"/>
<path d="M0 0 C2 2 2 2 2 5 C1.3606250000000273 5.103124999999977 0.7212500000000546 5.206250000000011 0.0625 5.3125 C-0.6181249999999636 5.539375000000007 -1.298749999999984 5.766250000000014 -2 6 C-2.329999999999984 6.990000000000009 -2.660000000000025 7.980000000000018 -3 9 C-5.0625 9.6875 -5.0625 9.6875 -7 10 C-6.022239325699275 8.519903566425512 -5.042750604544665 7.0409485588544385 -4.0625 5.5625 C-3.5172265625000136 4.738789062500018 -2.9719531250000273 3.9150781249999795 -2.41015625 3.06640625 C-1 1 -1 1 0 0 Z " fill="#D0D5D9" transform="translate(513,426)"/>
<path d="M0 0 C0.3300000000000409 0.660000000000025 0.6599999999999682 1.3199999999999932 1 2 C0.07421875 3.83984375 0.07421875 3.83984375 -1.3125 5.9375 C-1.7623828124999932 6.627148437500011 -2.2122656249999864 7.316796875000023 -2.67578125 8.02734375 C-3.112773437499982 8.678320312499977 -3.5497656250000205 9.329296875000011 -4 10 C-4.329999999999984 10.495000000000005 -4.329999999999984 10.495000000000005 -6 13 C-6.990000000000009 13 -7.980000000000018 13 -9 13 C-7.509235655196846 9.717306796292064 -5.613796789614412 7.069225586921846 -3.375 4.25 C-2.7433593750000114 3.4507812499999773 -2.1117187500000227 2.6515625000000114 -1.4609375 1.828125 C-0.9788281250000068 1.224843749999991 -0.49671875000001364 0.6215624999999818 0 0 Z " fill="#494C4E" transform="translate(512,376)"/>
<path d="M0 0 C2 3 2 3 2 5 C1.009999999999991 5 0.01999999999998181 5 -1 5 C-1.660000000000025 6.319999999999993 -2.319999999999993 7.639999999999986 -3 9 C-3.990000000000009 8.670000000000016 -4.980000000000018 8.339999999999975 -6 8 C-4.019999999999982 5.360000000000014 -2.0400000000000205 2.7200000000000273 0 0 Z " fill="#CECFD6" transform="translate(470,483)"/>
<path d="M0 0 C0.3300000000000409 0.9900000000000091 0.6599999999999682 1.9800000000000182 1 3 C-2.2999999999999545 5.970000000000027 -5.600000000000023 8.939999999999998 -9 12 C-9.659999999999968 11.670000000000016 -10.32000000000005 11.339999999999975 -11 11 C-9.710348239561654 9.624371455532469 -8.37310707438155 8.292336070006172 -7 7 C-6.340000000000032 7 -5.67999999999995 7 -5 7 C-4.731874999999945 6.401875000000018 -4.4637500000000045 5.8037499999999795 -4.1875 5.1875 C-3.015065330188577 3.027751924031577 -1.8063071822994061 1.642097438453959 0 0 Z " fill="#BFC3C8" transform="translate(555,480)"/>
<path d="M0 0 C3.2999999999999545 0.3299999999999841 6.600000000000023 0.660000000000025 10 1 C9.669999999999959 1.660000000000025 9.340000000000032 2.319999999999993 9 3 C4.3799999999999955 3 -0.2400000000000091 3 -5 3 C-5 2.670000000000016 -5 2.339999999999975 -5 2 C-3.3500000000000227 1.670000000000016 -1.7000000000000455 1.339999999999975 0 1 C0 0.6700000000000159 0 0.339999999999975 0 0 Z " fill="#3C3F43" transform="translate(532,492)"/>
<path d="M0 0 C0 0.9900000000000091 0 1.9800000000000182 0 3 C0.3108836779358626 4.6709997689054035 0.6408033223466418 6.338715365853375 1 8 C0.17499999999995453 8.495000000000005 0.17499999999995453 8.495000000000005 -4 11 C-4.8125 8.875 -4.8125 8.875 -5 6 C-3.5557651913768495 3.698924390738398 -1.8912786482081856 1.983536143242702 0 0 Z " fill="#30353A" transform="translate(603,456)"/>
<path d="M0 0 C5.538461538461547 0.6153846153846416 5.538461538461547 0.6153846153846416 7.875 2.5625 C8.060624999999959 2.7996875000000045 8.060624999999959 2.7996875000000045 9 4 C6.75 4.6875 6.75 4.6875 4 5 C1.6875 3.6875 1.6875 3.6875 0 2 C0 1.339999999999975 0 0.6800000000000068 0 0 Z M-3 3 C-1 4 -1 4 -1 4 Z " fill="#1E2328" transform="translate(546,345)"/>
<path d="M0 0 C0.6599999999999682 0.3299999999999841 1.32000000000005 0.660000000000025 2 1 C-0.1626401216950626 4.983810750490875 -2.7121117621093163 7.889835450643943 -6 11 C-6.659999999999968 10.670000000000016 -7.32000000000005 10.339999999999975 -8 10 C-5.360000000000014 6.699999999999989 -2.7200000000000273 3.3999999999999773 0 0 Z " fill="#C3C6CD" transform="translate(633,468)"/>
<path d="M0 0 C1.32000000000005 0 2.6399999999999864 0 4 0 C4 2.3100000000000023 4 4.6200000000000045 4 7 C2.67999999999995 7 1.3600000000000136 7 0 7 C0 6.339999999999975 0 5.680000000000007 0 5 C-0.9900000000000091 5 -1.9800000000000182 5 -3 5 C-3 4.339999999999975 -3 3.680000000000007 -3 3 C-2.1749999999999545 3.1650000000000205 -2.1749999999999545 3.1650000000000205 2 4 C2 3.339999999999975 2 2.680000000000007 2 2 C1.3400000000000318 2 0.67999999999995 2 0 2 C0 1.339999999999975 0 0.6800000000000068 0 0 Z " fill="#0F1122" transform="translate(557,466)"/>
<path d="M0 0 C2 3 2 3 2 5 C1.009999999999991 5.330000000000041 0.01999999999998181 5.659999999999968 -1 6 C-1.660000000000025 6.659999999999968 -2.319999999999993 7.32000000000005 -3 8 C-4.319999999999993 7.669999999999959 -5.639999999999986 7.340000000000032 -7 7 C-4.689999999999998 4.690000000000055 -2.3799999999999955 2.3799999999999955 0 0 Z " fill="#CACDCF" transform="translate(354,520)"/>
<path d="M0 0 C0.9760821725873825 2.9282465177620907 1.0822666822868996 4.956132755384942 1 8 C-0.3199999999999932 8.329999999999984 -1.6399999999999864 8.660000000000025 -3 9 C-3.75 7.3125 -3.75 7.3125 -4 5 C-2.0625 2.25 -2.0625 2.25 0 0 Z " fill="#393C43" transform="translate(466,437)"/>
<path d="M0 0 C0 2.839672310046751 -0.40267180819444093 5.23735711289936 -1 8 C-4.75 9.125 -4.75 9.125 -7 8 C-4.690000000000055 5.360000000000014 -2.3799999999999955 2.7200000000000273 0 0 Z " fill="#414046" transform="translate(626,429)"/>
<path d="M0 0 C0.3299999999999841 0.660000000000025 0.660000000000025 1.3199999999999932 1 2 C1.660000000000025 2.329999999999984 2.319999999999993 2.660000000000025 3 3 C2.009999999999991 3.329999999999984 1.0199999999999818 3.660000000000025 0 4 C-0.3299999999999841 4.990000000000009 -0.660000000000025 5.980000000000018 -1 7 C-3.5625 8.1875 -3.5625 8.1875 -6 9 C-4.687754519045541 5.063263557136565 -3.0808967284117443 2.7728070555705813 0 0 Z " fill="#C5CACC" transform="translate(477,474)"/>
<path d="M0 0 C1 4 1 4 -0.4375 6.75 C-0.6953125 7.121249999999975 -0.6953125 7.121249999999975 -2 9 C-3.319999999999993 8.670000000000016 -4.639999999999986 8.339999999999975 -6 8 C-4.019999999999982 5.360000000000014 -2.0400000000000205 2.7200000000000273 0 0 Z " fill="#C7CCD0" transform="translate(505,436)"/>
<path d="M0 0 C-1.2497675584631907 3.6531667093537976 -1.6709875338931397 4.780658355928779 -5 7 C-5.990000000000009 6.339999999999975 -6.980000000000018 5.680000000000007 -8 5 C-3.375 0 -3.375 0 0 0 Z " fill="#20212D" transform="translate(621,400)"/>
<path d="M0 0 C2.6399999999999864 0 5.279999999999973 0 8 0 C8 0.6599999999999682 8 1.32000000000005 8 2 C8.990000000000009 2.1649999999999636 8.990000000000009 2.1649999999999636 14 3 C14 3.330000000000041 14 3.659999999999968 14 4 C4.418859649122794 4.563596491228054 4.418859649122794 4.563596491228054 0 1 C0 0.6699999999999591 0 0.34000000000003183 0 0 Z " fill="#414349" transform="translate(411,532)"/>
<path d="M0 0 C0.3300000000000409 0.660000000000025 0.6599999999999682 1.3199999999999932 1 2 C0.09373216453616351 3.29898389749809 -0.825495367053577 4.588931673970592 -1.75 5.875 C-2.2604687499999727 6.594296874999998 -2.7709374999999454 7.3135937499999955 -3.296875 8.0546875 C-5.075035468705323 10.085705650034924 -6.527016071564049 10.978550116515635 -9 12 C-6 8 -3 4 0 0 Z " fill="#C9C7D0" transform="translate(703,476)"/>
<path d="M0 0 C1.6499999999999773 0 3.2999999999999545 0 5 0 C3.5574634297457806 3.3659186639266068 1.6673527258244576 5.51047078923051 -1 8 C-0.6699999999999591 5.360000000000014 -0.34000000000003183 2.7200000000000273 0 0 Z " fill="#E1E3E6" transform="translate(556,425)"/>
<path d="M0 0 C0.6599999999999682 0 1.32000000000005 0 2 0 C1.669999999999959 3.6299999999999955 1.3400000000000318 7.259999999999991 1 11 C0.6699999999999591 11 0.34000000000003183 11 0 11 C0 8.689999999999998 0 6.3799999999999955 0 4 C-0.6599999999999682 4 -1.32000000000005 4 -2 4 C-2 4.660000000000025 -2 5.319999999999993 -2 6 C-2.659999999999968 5.670000000000016 -3.32000000000005 5.339999999999975 -4 5 C-3.669999999999959 4.339999999999975 -3.340000000000032 3.680000000000007 -3 3 C-2.340000000000032 3 -1.67999999999995 3 -1 3 C-0.6699999999999591 2.009999999999991 -0.34000000000003183 1.0199999999999818 0 0 Z " fill="#92969F" transform="translate(523,413)"/>
<path d="M0 0 C2.6399999999999864 0.3299999999999841 5.279999999999973 0.660000000000025 8 1 C5.612059198281713 3.38794080171823 4.230913812512426 3.3538172374975375 1 4 C0.34000000000003183 4.660000000000025 -0.32000000000005 5.319999999999993 -1 6 C-1 5.339999999999975 -1 4.680000000000007 -1 4 C-1.6599999999999682 4 -2.32000000000005 4 -3 4 C-3 3.339999999999975 -3 2.680000000000007 -3 2 C-2.009999999999991 2 -1.0199999999999818 2 0 2 C0 1.339999999999975 0 0.6800000000000068 0 0 Z " fill="#2A2D38" transform="translate(632,465)"/>
<path d="M0 0 C0.3299999999999841 0.660000000000025 0.660000000000025 1.3199999999999932 1 2 C0.125 4 0.125 4 -1 6 C-1.329999999999984 6.660000000000025 -1.660000000000025 7.319999999999993 -2 8 C-3.319999999999993 8 -4.639999999999986 8 -6 8 C-4.557463429745724 4.634081336073393 -2.6673527258244007 2.48952921076949 0 0 Z " fill="#464C4E" transform="translate(392,432)"/>
<path d="M0 0 C0.660000000000025 0.3299999999999841 1.3199999999999932 0.660000000000025 2 1 C0.9802693025191047 4.773003580679415 0.3412733841640829 5.802061437184818 -3.125 7.8125 C-4.073750000000018 8.204375000000027 -5.0224999999999795 8.596249999999998 -6 9 C-4.472910372131082 5.564048337294935 -2.4007295465445395 2.88087545585347 0 0 Z " fill="#3D4342" transform="translate(502,389)"/>
<path d="M0 0 C2 2 2 2 2.1953125 3.9453125 C2.1302083333333712 5.963541666666629 2.0651041666666288 7.981770833333371 2 10 C0.67999999999995 10.330000000000041 -0.6399999999999864 10.659999999999968 -2 11 C-1.3400000000000318 7.3700000000000045 -0.67999999999995 3.740000000000009 0 0 Z " fill="#5FC2BB" transform="translate(580,558)"/>
<path d="M0 0 C0.3299999999999841 1.3199999999999932 0.660000000000025 2.6399999999999864 1 4 C0.7009375000000091 4.123749999999973 0.7009375000000091 4.123749999999973 -0.8125 4.75 C-3.2864752108028483 6.1637001204587705 -4.433702554588365 7.650553831882576 -6 10 C-6.660000000000025 9.669999999999959 -7.319999999999993 9.340000000000032 -8 9 C-5.360000000000014 6.029999999999973 -2.7200000000000273 3.0599999999999454 0 0 Z " fill="#BBBCC1" transform="translate(363,510)"/>
<path d="M0 0 C0.660000000000025 0.3299999999999841 1.3199999999999932 0.660000000000025 2 1 C0.3766019498050923 2.708840052836706 -1.2931905281703848 4.374467169686113 -3 6 C-3.660000000000025 6 -4.319999999999993 6 -5 6 C-5.329999999999984 6.990000000000009 -5.660000000000025 7.980000000000018 -6 9 C-6.660000000000025 9 -7.319999999999993 9 -8 9 C-6.416942297129026 4.725744202248279 -3.4943159601390903 2.734682055761027 0 0 Z " fill="#58575A" transform="translate(404,420)"/>
<path d="M0 0 C0.3300000000000409 0.660000000000025 0.6599999999999682 1.3199999999999932 1 2 C-3.625 7.875 -3.625 7.875 -7 9 C-5.444990189294344 5.183157737358897 -2.9640450493171784 2.808042678300467 0 0 Z " fill="#CBCCD2" transform="translate(626,396)"/>
<path d="M0 0 C1.6499999999999773 0 3.3000000000000114 0 5 0 C3.6875 2.5 3.6875 2.5 2 5 C1.009999999999991 5 0.01999999999998181 5 -1 5 C-0.6700000000000159 3.3500000000000227 -0.339999999999975 1.6999999999999886 0 0 Z " fill="#EAEBE9" transform="translate(333,491)"/>
<path d="M0 0 C0.3300000000000409 0.9900000000000091 0.6599999999999682 1.9800000000000182 1 3 C0.38125000000002274 3.598124999999982 -0.23749999999995453 4.1962500000000205 -0.875 4.8125 C-3 7 -3 7 -5 10 C-5.659999999999968 9.339999999999975 -6.32000000000005 8.680000000000007 -7 8 C-4.690000000000055 5.360000000000014 -2.3799999999999955 2.7200000000000273 0 0 Z " fill="#CFD1D9" transform="translate(711,467)"/>
<path d="M0 0 C2.125 0.375 2.125 0.375 4 1 C3.009999999999991 1.8249999999999886 3.009999999999991 1.8249999999999886 -2 6 C-2 2 -2 2 0 0 Z " fill="#E3E5E3" transform="translate(323,504)"/>
<path d="M0 0 C0 2.839672310046751 -0.40267180819444093 5.23735711289936 -1 8 C-2.319999999999993 8 -3.6399999999999864 8 -5 8 C-3.814176297870688 4.6249633093243006 -2.7242631099849177 2.3527726858960705 0 0 Z " fill="#59595A" transform="translate(445,465)"/>
<path d="M0 0 C0.3300000000000409 0.660000000000025 0.6599999999999682 1.3199999999999932 1 2 C0.6699999999999591 2.660000000000025 0.34000000000003183 3.319999999999993 0 4 C0.6599999999999682 4.329999999999984 1.32000000000005 4.660000000000025 2 5 C1.669999999999959 5.4950000000000045 1.669999999999959 5.4950000000000045 0 8 C-0.9900000000000091 8 -1.9800000000000182 8 -3 8 C-1.125 1.125 -1.125 1.125 0 0 Z " fill="#0F1217" transform="translate(599,463)"/>
<path d="M0 0 C0.6599999999999682 0.3299999999999841 1.32000000000005 0.660000000000025 2 1 C-0.75 7.875 -0.75 7.875 -3 9 C-3.659999999999968 8.339999999999975 -4.32000000000005 7.680000000000007 -5 7 C-4.680312500000014 6.886562500000025 -4.680312500000014 6.886562500000025 -3.0625 6.3125 C-1 5 -1 5 -0.25 2.375 C-0.1675000000000182 1.5912500000000023 -0.08500000000003638 0.8075000000000045 0 0 Z " fill="#1E202B" transform="translate(712,460)"/>
<path d="M0 0 C0.3300000000000409 0.660000000000025 0.6599999999999682 1.3199999999999932 1 2 C1.6599999999999682 2 2.32000000000005 2 3 2 C2.669999999999959 2.660000000000025 2.340000000000032 3.319999999999993 2 4 C0.67999999999995 4 -0.6399999999999864 4 -2 4 C-2.659999999999968 5.319999999999993 -3.32000000000005 6.639999999999986 -4 8 C-4.659999999999968 7.670000000000016 -5.32000000000005 7.339999999999975 -6 7 C-4.019999999999982 4.689999999999998 -2.0399999999999636 2.3799999999999955 0 0 Z " fill="#3A3A3B" transform="translate(594,386)"/>
<path d="M0 0 C2.0625 1.75 2.0625 1.75 4 4 C3.75 6.25 3.75 6.25 3 8 C2.009999999999991 7.670000000000016 1.0199999999999818 7.339999999999975 0 7 C0 4.689999999999998 0 2.3799999999999955 0 0 Z " fill="#2F2F34" transform="translate(630,368)"/>
<path d="M0 0 C0.8250000000000455 0.3300000000000409 0.8250000000000455 0.3300000000000409 5 2 C5 3.980000000000018 5 5.960000000000036 5 8 C4.669999999999959 8.164999999999964 4.669999999999959 8.164999999999964 3 9 C2.6906249999999545 7.886250000000018 2.3812500000000227 6.772500000000036 2.0625 5.625 C1 2 1 2 0 0 Z " fill="#A5E9E4" transform="translate(579,556)"/>
<path d="M0 0 C1 2 1 2 0.9375 4 C0 6 0 6 -3.0625 7.25 C-4.031875000000014 7.497500000000002 -5.001250000000027 7.7450000000000045 -6 8 C-4.019999999999982 5.360000000000014 -2.0400000000000205 2.7200000000000273 0 0 Z " fill="#3C4348" transform="translate(331,499)"/>
<path d="M0 0 C0.9900000000000091 0.3299999999999841 1.9800000000000182 0.660000000000025 3 1 C1.3500000000000227 2.6499999999999773 -0.2999999999999545 4.300000000000011 -2 6 C-2.659999999999968 5.670000000000016 -3.32000000000005 5.339999999999975 -4 5 C-4 4.339999999999975 -4 3.680000000000007 -4 3 C-3.340000000000032 3 -2.67999999999995 3 -2 3 C-2 2.339999999999975 -2 1.6800000000000068 -2 1 C-1.3400000000000318 0.6700000000000159 -0.67999999999995 0.339999999999975 0 0 Z " fill="#2A2A36" transform="translate(697,480)"/>
<path d="M0 0 C0.6599999999999682 0.16500000000002046 0.6599999999999682 0.16500000000002046 4 1 C2.695931159047518 3.019203366636134 1.361765813298348 5.019249726111468 0 7 C-0.3300000000000409 7 -0.6599999999999682 7 -1 7 C-0.6699999999999591 4.689999999999998 -0.34000000000003183 2.3799999999999955 0 0 Z " fill="#292736" transform="translate(701,473)"/>
<path d="M0 0 C0.9900000000000091 0.3299999999999841 1.9800000000000182 0.660000000000025 3 1 C1.3500000000000227 2.980000000000018 -0.30000000000001137 4.9599999999999795 -2 7 C-2.329999999999984 5.680000000000007 -2.660000000000025 4.360000000000014 -3 3 C-2.339999999999975 3 -1.6800000000000068 3 -1 3 C-0.6700000000000159 2.009999999999991 -0.339999999999975 1.0199999999999818 0 0 Z " fill="#EAEAEC" transform="translate(436,473)"/>
<path d="M0 0 C0 3.1055166570809547 -0.5393714960008538 4.352610836501526 -2 7 C-3.32000000000005 6.670000000000016 -4.639999999999986 6.339999999999975 -6 6 C-2.25 1.125 -2.25 1.125 0 0 Z " fill="#10131C" transform="translate(680,457)"/>
<path d="M0 0 C1.2313940047945948 2.462788009589133 1.0715919604618875 4.279505502448501 1 7 C-0.9800000000000182 7.329999999999984 -2.9599999999999795 7.660000000000025 -5 8 C-3.628454960733052 5.04590299234809 -2.011362760110501 2.5599162401406375 0 0 Z " fill="#4C4D4F" transform="translate(457,449)"/>
<path d="M0 0 C0.660000000000025 0.9900000000000091 1.3199999999999932 1.9800000000000182 2 3 C-0.21934164407122125 6.32901246610686 -1.3468332906462024 6.750232441536866 -5 8 C-3.628454960733052 5.04590299234809 -2.011362760110501 2.5599162401406375 0 0 Z " fill="#4A4D55" transform="translate(493,401)"/>
<path d="M0 0 C0 3 0 3 -1.3125 4.38671875 C-2.875 5.591145833333314 -4.4375 6.795572916666686 -6 8 C-5.669999999999959 6.019999999999982 -5.340000000000032 4.0400000000000205 -5 2 C-4.360625000000027 1.855624999999975 -3.7212500000000546 1.7112500000000068 -3.0625 1.5625 C-1 1 -1 1 0 0 Z " fill="#C3C3C2" transform="translate(525,358)"/>
<path d="M0 0 C0.9900000000000091 0.3300000000000409 1.9800000000000182 0.6599999999999682 3 1 C1.1875 3.5 1.1875 3.5 -1 6 C-1.990000000000009 6 -2.980000000000018 6 -4 6 C-2.680000000000007 4.019999999999982 -1.3600000000000136 2.0399999999999636 0 0 Z " fill="#D7D7DD" transform="translate(447,513)"/>
<path d="M0 0 C0.660000000000025 0 1.3199999999999932 0 2 0 C1.4362858578248847 3.2695420246157028 0.5003773418247874 4.825758833195891 -2 7 C-2.660000000000025 6.669999999999959 -3.319999999999993 6.340000000000032 -4 6 C-2.8482664479834625 3.531999531393126 -1.9521643451747082 1.9521643451747082 0 0 Z " fill="#282832" transform="translate(447,509)"/>
<path d="M0 0 C0.3300000000000409 0.660000000000025 0.6599999999999682 1.3199999999999932 1 2 C-0.25 4.625 -0.25 4.625 -2 7 C-2.990000000000009 7 -3.980000000000018 7 -5 7 C-3.70700305786886 4.115622206015132 -2.3405863666929463 2.1278057879026733 0 0 Z " fill="#3B3D40" transform="translate(597,464)"/>
<path d="M0 0 C1.231394004794538 2.462788009589133 1.0715919604618875 4.279505502448501 1 7 C-0.6666666666666288 7 -2.3333333333333712 7 -4 7 C-2.796185519900746 4.506384291223071 -1.5457127814719342 2.3185691722079014 0 0 Z " fill="#3D4144" transform="translate(562,424)"/>
<path d="M0 0 C0.6599999999999682 0.3299999999999841 1.32000000000005 0.660000000000025 2 1 C1.669999999999959 2.319999999999993 1.3400000000000318 3.6399999999999864 1 5 C-0.6499999999999773 4.670000000000016 -2.2999999999999545 4.339999999999975 -4 4 C-2.67999999999995 2.680000000000007 -1.3600000000000136 1.3600000000000136 0 0 Z " fill="#1D212D" transform="translate(681,496)"/>
<path d="M0 0 C1.3199999999999932 0.3299999999999841 2.6399999999999864 0.660000000000025 4 1 C3.6875 2.9375 3.6875 2.9375 3 5 C2.009999999999991 5.329999999999984 1.0199999999999818 5.660000000000025 0 6 C0 4.019999999999982 0 2.0400000000000205 0 0 Z " fill="#12131D" transform="translate(376,488)"/>
<path d="M0 0 C1.32000000000005 0 2.6399999999999864 0 4 0 C4 0.660000000000025 4 1.3199999999999932 4 2 C4.659999999999968 2.329999999999984 5.32000000000005 2.660000000000025 6 3 C5.669999999999959 3.1650000000000205 5.669999999999959 3.1650000000000205 4 4 C3.669999999999959 4.660000000000025 3.340000000000032 5.319999999999993 3 6 C2.009999999999991 4.019999999999982 1.0199999999999818 2.0400000000000205 0 0 Z " fill="#212735" transform="translate(650,483)"/>
<path d="M0 0 C0 3 0 3 -1 6 C-3.5625 7.1875 -3.5625 7.1875 -6 8 C-4.557463429745781 4.634081336073393 -2.6673527258244576 2.48952921076949 0 0 Z " fill="#4A4A4F" transform="translate(591,471)"/>
<path d="M0 0 C0.660000000000025 0 1.3199999999999932 0 2 0 C2.329999999999984 0.9900000000000091 2.660000000000025 1.9800000000000182 3 3 C1.6800000000000068 4.319999999999993 0.36000000000001364 5.639999999999986 -1 7 C-2 4 -2 4 -1.0625 1.8125 C-0.8871874999999818 1.513437500000009 -0.8871874999999818 1.513437500000009 0 0 Z " fill="#DDE2E2" transform="translate(358,464)"/>
<path d="M0 0 C-1.4525569922360546 3.8294684340768868 -3.428955608040269 5.120502951600145 -7 7 C-3.862068965517267 0 -3.862068965517267 0 0 0 Z " fill="#545860" transform="translate(383,444)"/>
<path d="M0 0 C1.32000000000005 0 2.6399999999999864 0 4 0 C3.1875 1.9375 3.1875 1.9375 2 4 C1.009999999999991 4.329999999999984 0.01999999999998181 4.660000000000025 -1 5 C-1.330000000000041 4.339999999999975 -1.6599999999999682 3.680000000000007 -2 3 C-1.3400000000000318 2.009999999999991 -0.67999999999995 1.0199999999999818 0 0 Z " fill="#111018" transform="translate(568,419)"/>
</svg>
